<?xml version="1.0" standalone="no"?>
<!DOCTYPE svg PUBLIC "-//W3C//DTD SVG 20010904//EN"
 "http://www.w3.org/TR/2001/REC-SVG-20010904/DTD/svg10.dtd">
<svg version="1.0" xmlns="http://www.w3.org/2000/svg"
 width="2048.000000pt" height="2048.000000pt" viewBox="0 0 2048.000000 2048.000000"
 preserveAspectRatio="xMidYMid meet">

<g transform="translate(0.000000,2048.000000) scale(0.100000,-0.100000)"
fill="#000000" stroke="none">
<path d="M10188 16516 c-108 -42 -198 -133 -378 -382 -47 -65 -105 -145 -130
-178 -25 -34 -104 -142 -175 -241 -71 -99 -164 -227 -207 -285 -138 -188 -242
-331 -405 -555 -87 -121 -274 -377 -414 -570 -350 -480 -794 -1090 -921 -1265
-57 -80 -311 -429 -564 -776 -252 -348 -515 -710 -584 -805 -204 -283 -852
-1171 -1134 -1554 -220 -299 -231 -320 -231 -442 0 -87 1 -93 31 -130 17 -21
46 -46 65 -55 32 -16 354 -17 5162 -18 2820 0 5127 3 5127 8 0 6 -130 174
-329 427 -26 33 -130 166 -231 295 -101 129 -265 339 -364 465 -232 296 -524
670 -595 761 -31 40 -64 77 -73 83 -13 8 -669 11 -2443 11 -2089 0 -2426 2
-2431 14 -5 13 52 95 393 561 60 83 138 191 174 240 93 128 291 400 444 610
73 99 152 208 176 242 200 279 295 403 308 401 15 -3 76 -77 479 -573 102
-126 191 -233 197 -237 5 -4 589 -8 1298 -8 1113 0 1287 2 1287 14 0 8 -44 66
-97 129 -97 114 -369 437 -958 1137 -309 367 -417 497 -911 1086 -458 546
-1050 1252 -1173 1397 -143 170 -183 199 -284 203 -46 3 -85 -1 -109 -10z"/>
<path d="M16436 15347 c3 -10 9 -15 12 -12 3 3 0 11 -7 18 -10 9 -11 8 -5 -6z"/>
<path d="M16500 15272 c0 -5 21 -38 48 -73 235 -317 504 -758 718 -1174 557
-1088 858 -2193 934 -3425 12 -192 15 -712 5 -897 -43 -812 -179 -1537 -435
-2303 -724 -2171 -2294 -3963 -4355 -4970 -1789 -873 -3825 -1096 -5760 -630
-971 234 -1914 645 -2740 1195 -247 165 -264 176 -444 312 -68 51 -70 39 -3
-15 34 -26 63 -55 65 -64 3 -10 21 -27 41 -39 20 -11 34 -25 31 -29 -3 -5 4
-11 15 -15 11 -4 18 -11 15 -16 -4 -5 0 -9 8 -9 7 0 26 -13 42 -30 16 -16 38
-30 49 -31 12 0 16 -3 10 -5 -9 -4 60 -84 73 -84 5 0 143 -112 173 -140 22
-21 134 -109 186 -146 23 -18 62 -47 86 -66 117 -95 531 -372 733 -492 72 -42
137 -81 145 -86 8 -6 33 -19 55 -30 22 -10 72 -37 110 -59 120 -68 573 -291
590 -291 3 0 33 -13 67 -29 35 -15 99 -43 143 -61 44 -18 98 -40 120 -50 22
-9 65 -25 95 -35 30 -10 66 -24 80 -31 53 -28 534 -182 715 -229 55 -14 125
-32 155 -40 106 -29 396 -94 485 -109 50 -9 140 -24 200 -35 114 -21 516 -71
735 -91 188 -18 870 -24 1105 -11 369 22 717 60 965 106 41 8 116 21 165 31
122 22 438 91 500 108 28 8 84 24 125 35 166 44 398 112 445 131 11 4 74 27
140 50 149 52 300 108 340 125 17 7 50 20 75 30 25 9 68 27 95 40 28 13 100
45 160 71 234 99 677 327 838 430 37 24 70 44 72 44 10 0 395 245 421 268 5 5
19 14 30 20 10 6 69 47 129 91 61 45 119 87 130 95 97 70 443 349 470 380 6 6
41 38 80 71 38 33 77 67 85 75 9 8 78 74 155 145 221 208 540 553 725 784 19
24 57 71 85 105 27 34 53 66 57 71 5 6 25 33 45 60 20 28 49 66 63 85 113 148
430 628 495 748 11 20 35 64 54 97 19 33 48 85 64 115 16 30 33 60 37 65 14
18 187 368 234 474 102 225 109 243 131 301 10 25 28 68 41 96 13 28 24 54 24
58 0 5 6 22 14 39 87 199 275 803 336 1082 44 202 64 295 80 385 30 163 49
271 55 315 3 22 10 69 15 105 83 585 100 1406 40 1965 -26 242 -46 396 -60
465 -4 25 -14 79 -20 120 -21 135 -61 343 -86 450 -14 58 -34 143 -45 190 -29
121 -55 218 -126 455 -8 28 -21 66 -28 85 -7 19 -25 71 -39 115 -13 44 -41
125 -62 180 -20 55 -45 124 -55 153 -10 29 -29 79 -43 110 -13 31 -41 98 -61
147 -88 211 -312 681 -343 718 -8 9 -12 17 -8 17 4 0 -6 19 -22 43 -16 23 -42
67 -59 97 -55 97 -70 124 -104 182 -66 110 -94 154 -161 256 -37 57 -68 106
-68 110 0 3 -8 15 -19 26 -10 12 -53 73 -96 136 -43 63 -103 148 -134 188
-106 139 -176 229 -238 306 -35 43 -63 82 -63 88 0 5 -7 7 -16 4 -8 -3 -13 -2
-10 2 3 5 -19 35 -49 68 -30 32 -54 62 -55 67 0 4 -7 7 -15 7 -8 0 -14 3 -14
8 4 22 -3 31 -17 25 -13 -5 -15 -2 -10 14 5 14 0 23 -20 33 -14 8 -32 27 -40
42 -8 15 -19 28 -24 28 -5 0 -29 25 -54 56 -26 31 -46 52 -46 46z"/>
<path d="M7105 8929 c-33 -5 -95 -20 -138 -34 -244 -81 -376 -253 -403 -526
-23 -236 124 -464 354 -548 140 -51 365 -60 527 -22 120 29 131 37 143 108 5
32 8 60 6 62 -2 2 -21 -7 -42 -21 -150 -100 -296 -118 -457 -57 -75 28 -170
119 -207 199 -56 119 -70 252 -42 388 41 201 175 341 356 372 115 20 213 -10
316 -97 29 -25 56 -42 60 -38 13 12 29 133 20 149 -5 9 -37 24 -72 35 -124 38
-284 50 -421 30z"/>
<path d="M11920 8925 c-296 -55 -463 -209 -516 -474 -50 -250 58 -490 270
-598 162 -83 404 -101 626 -47 95 24 105 32 117 103 5 34 7 61 5 61 -3 0 -26
-13 -51 -29 -148 -95 -286 -110 -449 -49 -72 27 -165 118 -205 201 -101 210
-61 492 90 645 91 92 227 135 348 112 74 -15 118 -37 190 -96 31 -25 59 -44
61 -41 5 5 24 114 24 139 0 22 -91 56 -200 74 -101 17 -220 16 -310 -1z"/>
<path d="M13126 8930 c-118 -21 -260 -84 -343 -153 -206 -169 -261 -444 -138
-694 65 -132 212 -242 385 -289 49 -14 101 -18 210 -17 128 0 156 3 235 27
268 80 434 272 451 521 15 206 -85 403 -260 517 -99 64 -198 90 -356 94 -74 1
-157 -1 -184 -6z m292 -101 c228 -116 311 -469 174 -733 -50 -97 -119 -169
-200 -208 -60 -30 -75 -33 -157 -33 -79 0 -96 4 -144 29 -149 78 -241 253
-241 461 0 155 48 288 142 390 123 135 277 169 426 94z"/>
<path d="M8192 8922 c-7 -4 -51 -96 -98 -203 -101 -230 -252 -572 -301 -684
-19 -44 -49 -111 -66 -148 -18 -40 -27 -71 -21 -76 16 -16 99 -22 116 -9 9 7
39 78 68 158 29 80 57 151 62 158 16 19 411 17 431 -2 7 -8 35 -76 61 -153 27
-76 53 -144 58 -150 8 -9 49 -13 144 -13 74 0 134 2 134 5 0 9 -471 1100 -478
1107 -12 12 -96 20 -110 10z m78 -504 c39 -100 69 -187 66 -195 -7 -18 -310
-18 -324 0 -7 8 14 70 63 187 88 209 91 215 110 200 7 -6 46 -93 85 -192z"/>
<path d="M10720 8888 c-10 -24 -118 -268 -240 -543 -122 -275 -224 -510 -227
-522 -4 -15 -1 -23 8 -24 76 -4 103 -3 114 6 7 5 39 81 70 168 l58 157 217 0
218 0 58 -165 58 -165 138 0 c76 0 138 3 138 8 0 4 -107 257 -238 562 l-238
555 -57 3 -58 3 -19 -43z m99 -475 c62 -144 72 -175 61 -188 -10 -12 -38 -15
-150 -15 -150 0 -170 3 -170 29 0 17 127 317 143 339 24 31 44 3 116 -165z"/>
<path d="M9947 8913 c-4 -3 -7 -179 -7 -390 0 -210 -3 -383 -8 -383 -8 0 -507
501 -612 615 -36 38 -87 89 -114 112 -49 42 -51 43 -123 43 l-73 0 0 -309 c0
-274 -12 -660 -24 -747 -7 -48 5 -57 70 -55 33 1 62 7 66 14 4 7 8 182 8 390
0 310 2 377 14 377 11 0 565 -559 721 -728 l49 -53 65 3 66 3 7 400 c4 220 11
468 16 550 6 83 8 153 5 158 -5 9 -117 10 -126 0z"/>
<path d="M6666 7364 c-75 -18 -156 -65 -198 -114 -72 -84 -92 -231 -45 -332
36 -80 86 -122 233 -195 153 -76 239 -139 261 -191 32 -77 -9 -164 -100 -210
-95 -47 -230 -20 -306 63 -22 24 -43 56 -47 70 -3 14 -11 24 -18 22 -14 -5
-47 -133 -43 -172 2 -27 9 -33 61 -53 32 -13 99 -29 148 -35 75 -9 102 -9 169
5 154 32 248 95 310 210 31 58 34 70 34 149 0 78 -3 90 -30 135 -45 72 -132
136 -291 214 -153 75 -198 113 -209 174 -22 112 50 185 181 186 85 0 142 -22
185 -71 41 -46 51 -45 78 9 37 73 36 79 -8 102 -95 48 -248 62 -365 34z"/>
<path d="M7245 7350 c-2 -3 -5 -253 -6 -555 l-3 -550 330 0 329 0 0 50 0 50
-200 5 -200 5 -3 213 -2 213 197 -3 198 -3 0 45 0 45 -193 5 c-142 4 -195 8
-201 18 -8 13 -6 87 5 271 l6 94 198 -7 198 -6 4 47 c3 27 2 51 -2 56 -7 8
-650 15 -655 7z"/>
<path d="M8230 7353 l-195 -3 0 -555 0 -555 127 0 128 0 0 245 c0 215 2 246
16 252 22 8 36 -9 112 -138 37 -63 101 -169 142 -237 l75 -122 143 0 c82 0
142 4 142 9 0 6 -76 122 -170 260 -93 137 -170 256 -170 265 0 10 26 27 68 46
118 54 176 131 189 250 10 99 -33 191 -113 241 -38 23 -190 50 -259 47 -22 -2
-128 -4 -235 -5z m228 -89 c56 -23 101 -72 117 -128 38 -129 -2 -244 -105
-296 -38 -19 -147 -30 -168 -16 -13 8 -18 437 -5 449 12 13 124 7 161 -9z"/>
<path d="M11940 7352 c-13 -5 -13 -726 0 -805 25 -156 127 -252 327 -309 208
-59 502 -2 596 115 91 112 107 180 118 517 5 151 13 321 17 378 l8 102 -84 0
c-75 0 -83 -2 -78 -17 4 -9 9 -134 13 -277 8 -384 -19 -556 -102 -653 -52 -61
-107 -83 -217 -85 -197 -4 -305 70 -343 235 -22 96 -29 367 -15 590 6 110 9
201 7 203 -5 6 -233 11 -247 6z"/>
<path d="M13195 6797 l0 -558 130 3 130 3 3 248 c2 240 3 248 22 245 14 -2 65
-78 168 -248 l148 -245 147 -3 c81 -1 147 1 147 5 -1 5 -36 60 -80 123 -208
303 -270 399 -265 412 3 7 37 28 76 46 134 63 186 147 177 287 -6 89 -35 144
-96 185 -69 45 -129 53 -432 54 l-275 1 0 -558z m463 449 c53 -36 83 -95 89
-170 7 -81 -10 -138 -55 -188 -47 -52 -85 -68 -167 -68 l-65 0 0 225 c0 190 2
225 15 233 29 16 143 -4 183 -32z"/>
<path d="M8880 7345 c0 -3 106 -251 235 -552 l234 -548 69 -3 69 -3 110 258
c348 812 344 803 367 803 26 0 48 -33 208 -315 170 -300 163 -276 154 -498 -4
-100 -8 -195 -9 -212 l-2 -30 129 -3 c97 -2 132 1 138 10 4 7 8 120 7 251 l0
238 107 187 c59 103 126 220 148 260 40 70 42 73 71 65 17 -4 100 -7 185 -7
l155 -1 3 -502 2 -503 120 0 120 0 0 506 0 506 158 -3 157 -4 3 53 3 52 -510
0 -511 0 -71 -142 c-39 -79 -80 -159 -92 -178 -53 -90 -101 -160 -108 -160
-10 0 -24 22 -78 120 -22 41 -76 139 -118 218 l-78 142 -211 0 -210 0 -59
-152 c-131 -343 -260 -638 -280 -638 -7 0 -24 26 -38 58 -59 132 -133 318
-194 482 -35 96 -70 191 -77 210 l-14 35 -146 3 c-80 1 -146 0 -146 -3z"/>
<path d="M11615 5844 c-141 -31 -264 -123 -321 -241 -25 -51 -29 -69 -29 -148
0 -77 4 -98 27 -147 125 -267 537 -321 757 -101 146 147 159 336 34 491 -100
123 -296 184 -468 146z m177 -49 c59 -20 119 -79 154 -151 37 -76 46 -213 19
-295 -45 -137 -147 -229 -254 -229 -161 0 -282 165 -269 367 9 140 100 274
208 308 60 18 87 18 142 0z"/>
<path d="M5681 5835 c-144 -27 -247 -100 -298 -210 -91 -199 -22 -407 163
-496 132 -62 268 -72 409 -28 56 17 63 22 72 54 6 19 8 35 3 35 -4 0 -35 -14
-69 -32 -46 -23 -80 -33 -126 -36 -56 -4 -71 0 -130 29 -125 61 -169 144 -170
314 0 94 2 105 33 168 63 127 167 181 305 157 50 -9 71 -18 93 -41 39 -40 61
-38 70 8 5 28 3 39 -11 49 -46 34 -235 50 -344 29z"/>
<path d="M6135 5467 l0 -372 195 -3 c210 -3 273 4 351 44 162 81 247 292 190
473 -26 83 -69 134 -144 171 -98 47 -182 60 -400 60 l-192 0 0 -373z m387 307
c56 -19 120 -72 153 -127 29 -50 50 -170 40 -236 -24 -173 -116 -262 -287
-277 -42 -4 -88 -4 -102 0 l-26 6 0 319 c0 175 3 321 7 324 13 13 170 7 215
-9z"/>
<path d="M7626 5829 c-14 -41 -118 -710 -113 -723 4 -10 19 -16 41 -16 42 0
39 -15 62 270 9 113 20 209 25 215 15 16 32 -11 157 -250 92 -176 125 -231
141 -233 18 -3 28 12 66 95 24 54 54 114 65 133 11 19 44 81 72 138 29 56 58
102 65 102 7 0 17 -9 23 -20 13 -24 37 -192 46 -323 9 -127 8 -126 172 -125
68 1 125 5 128 10 3 4 17 52 32 106 l27 97 135 3 c74 1 145 0 156 -2 17 -5 29
-27 54 -98 18 -51 38 -99 43 -105 11 -14 162 -19 171 -5 4 7 -286 698 -307
730 -5 6 -24 12 -43 12 -41 0 -22 36 -224 -425 -124 -281 -136 -305 -151 -305
-13 0 -17 23 -59 360 -22 179 -45 335 -50 348 -13 30 -59 30 -89 -2 -13 -13
-43 -66 -68 -118 -86 -178 -196 -368 -214 -368 -12 0 -54 70 -142 238 -69 130
-130 243 -134 250 -12 19 -82 28 -87 11z m1242 -334 c29 -70 51 -130 48 -132
-6 -6 -249 -4 -255 2 -2 3 3 13 11 22 8 10 32 59 52 108 45 107 63 138 79 132
7 -2 36 -61 65 -132z"/>
<path d="M9287 5830 c-1 -3 -2 -169 -2 -370 l0 -365 193 -3 c274 -4 354 18
451 123 135 146 143 397 17 513 -90 83 -164 100 -449 105 -115 2 -209 0 -210
-3z m429 -75 c97 -61 144 -156 144 -296 0 -101 -23 -169 -77 -229 -56 -62
-124 -91 -226 -97 -127 -6 -117 -32 -117 322 0 167 3 311 6 320 6 15 21 17
114 13 98 -3 111 -6 156 -33z"/>
<path d="M10677 5834 c-10 -10 -9 -716 2 -732 5 -9 28 -12 77 -10 l69 3 3 164
c1 95 7 170 13 177 7 9 7 19 0 33 -6 11 -11 79 -11 159 0 159 4 167 72 163 96
-5 138 -49 138 -142 0 -97 -47 -158 -133 -174 -41 -8 -54 -20 -39 -38 5 -7 46
-82 92 -167 45 -85 89 -161 98 -167 18 -15 178 -18 186 -4 3 4 -44 82 -104
172 -61 90 -110 169 -110 176 0 6 27 26 60 44 65 35 83 55 100 118 25 93 -20
190 -98 210 -47 12 -405 25 -415 15z"/>
<path d="M12666 5824 c-19 -18 -19 -20 -5 -46 10 -18 19 -20 107 -17 l97 4 6
-315 c4 -173 7 -325 8 -337 1 -22 5 -23 81 -23 l80 0 2 338 3 337 97 -3 c89
-3 97 -2 108 17 8 15 8 27 0 41 -10 19 -21 20 -290 20 -240 0 -281 -2 -294
-16z"/>
<path d="M13506 5832 c-2 -4 -22 -53 -45 -108 -66 -167 -127 -306 -203 -466
-66 -137 -71 -151 -55 -163 19 -14 62 -9 75 9 5 6 20 47 32 91 37 127 18 116
193 113 l152 -3 39 -107 39 -108 139 0 c134 0 139 1 148 23 5 12 16 114 25
227 9 112 19 208 21 212 3 4 13 8 22 8 12 0 51 -67 132 -226 63 -124 121 -230
127 -236 7 -5 19 -8 27 -5 7 3 68 110 134 239 126 244 146 277 157 266 4 -3
16 -109 26 -235 22 -259 24 -269 43 -276 15 -6 144 8 153 16 3 3 -4 59 -16
124 -11 65 -32 215 -46 333 -14 118 -28 227 -31 243 -6 29 -38 44 -72 33 -12
-4 -66 -95 -154 -259 -94 -174 -141 -252 -152 -252 -12 0 -53 71 -137 235 -67
129 -127 245 -135 258 -15 23 -56 30 -82 13 -8 -5 -33 -131 -68 -347 -30 -186
-58 -347 -62 -356 -4 -11 -12 -15 -20 -9 -15 9 -156 326 -238 536 -71 180 -74
185 -124 185 -21 0 -41 -3 -44 -8z m50 -274 c15 -40 37 -99 50 -130 13 -32 24
-60 24 -63 0 -10 -249 -5 -255 5 -3 6 0 16 8 24 7 8 35 64 62 125 60 137 72
141 111 39z"/>
<path d="M10130 5460 l0 -370 218 2 217 3 0 30 0 30 -138 3 -138 3 3 142 3
142 55 0 c30 0 91 -3 135 -5 l80 -5 0 35 0 35 -135 5 -135 5 0 125 0 125 138
-4 137 -3 0 36 0 36 -220 0 -220 0 0 -370z"/>
<path d="M6980 5228 c-13 -7 -31 -25 -39 -39 -12 -22 -13 -31 -1 -58 15 -38
40 -53 88 -53 42 0 82 38 82 77 0 56 -78 100 -130 73z"/>
<path d="M12294 5231 c-26 -11 -34 -32 -79 -195 -43 -153 -37 -175 26 -89 24
32 69 93 101 136 58 79 70 115 45 136 -20 16 -68 22 -93 12z"/>
<path d="M14983 5220 c-28 -17 -33 -26 -33 -58 0 -72 75 -111 138 -73 26 17
32 27 32 55 0 48 -8 65 -41 81 -37 20 -58 19 -96 -5z"/>
</g>
</svg>
